<svg width="20" height="20" viewBox="0 0 20 20" fill="none" xmlns="http://www.w3.org/2000/svg">
<g clip-path="url(#clip0_5053_3943)">
<mask id="mask0_5053_3943" style="mask-type:luminance" maskUnits="userSpaceOnUse" x="0" y="0" width="20" height="20">
<path d="M0 1.90735e-06H20V20H0V1.90735e-06Z" fill="white"/>
</mask>
<g mask="url(#mask0_5053_3943)">
<path d="M8.59375 8.59375C8.59375 9.45668 7.89418 10.1562 7.03125 10.1562H2.34375C1.48082 10.1562 0.78125 9.45668 0.78125 8.59375V2.34375C0.78125 1.48082 1.48082 0.78125 2.34375 0.78125H7.03125C7.89418 0.78125 8.59375 1.48082 8.59375 2.34375V8.59375Z" stroke="#733E87" stroke-width="1.5" stroke-miterlimit="10"/>
<path d="M19.2187 17.6562C19.2187 18.5192 18.5192 19.2188 17.6562 19.2188H12.9687C12.1058 19.2188 11.4062 18.5192 11.4062 17.6562V11.4062C11.4062 10.5433 12.1058 9.84375 12.9687 9.84375H17.6562C18.5192 9.84375 19.2187 10.5433 19.2187 11.4062V17.6562Z" stroke="#733E87" stroke-width="1.5" stroke-miterlimit="10"/>
<path d="M8.59375 17.6562C8.59375 18.5192 7.89418 19.2187 7.03125 19.2187H2.34375C1.48082 19.2187 0.78125 18.5192 0.78125 17.6562V14.5312C0.78125 13.6683 1.48082 12.9687 2.34375 12.9687H7.03125C7.89418 12.9687 8.59375 13.6683 8.59375 14.5312V17.6562Z" stroke="#733E87" stroke-width="1.5" stroke-miterlimit="10"/>
<path d="M19.2187 5.46875C19.2187 6.33168 18.5192 7.03125 17.6562 7.03125H12.9687C12.1058 7.03125 11.4062 6.33168 11.4062 5.46875V2.34375C11.4062 1.48082 12.1058 0.781251 12.9687 0.781251H17.6562C18.5192 0.781251 19.2187 1.48082 19.2187 2.34375V5.46875Z" stroke="#733E87" stroke-width="1.5" stroke-miterlimit="10"/>
</g>
</g>
<defs>
<clipPath id="clip0_5053_3943">
<rect width="20" height="20" fill="white"/>
</clipPath>
</defs>
</svg>
