<svg width="120" height="82" viewBox="0 0 120 82" fill="none" xmlns="http://www.w3.org/2000/svg">
<g clip-path="url(#clip0_5133_2243)">
<path d="M0.402344 72.3039C0.402344 68.9833 3.0226 66.5077 6.59222 66.5077C10.1239 66.5077 12.7441 68.9685 12.7441 72.3039C12.7441 75.6431 10.1239 78.1002 6.59222 78.1002C3.0226 78.0928 0.402344 75.6172 0.402344 72.3039ZM11.077 72.3039C11.077 69.795 9.15171 67.9568 6.58082 67.9568C3.97196 67.9568 2.04665 69.7987 2.04665 72.3039C2.04665 74.8092 3.97196 76.6511 6.58082 76.6511C9.1631 76.6586 11.077 74.8129 11.077 72.3039Z" fill="#0B0736"/>
<path d="M14.7617 66.7409C14.7617 66.1702 15.2288 65.7144 15.8364 65.7144C16.444 65.7144 16.9111 66.148 16.9111 66.7039C16.9111 67.2857 16.4668 67.7416 15.8364 67.7416C15.2326 67.7379 14.7617 67.3043 14.7617 66.7409ZM15.0541 69.3945H16.6377V77.9703H15.0427V69.3945H15.0541Z" fill="#0B0736"/>
<path d="M26.6364 72.7964V77.9738H25.1288V76.8397C24.5933 77.6143 23.6212 78.0775 22.2427 78.0775C20.2566 78.0775 18.9883 77.0398 18.9883 75.5574C18.9883 74.1825 19.8997 73.0484 22.5199 73.0484H25.0414V72.7408C25.0414 71.4326 24.2554 70.6654 22.687 70.6654C21.6351 70.6654 20.5832 71.0249 19.8997 71.5919L19.2427 70.432C20.1541 69.7167 21.4718 69.3313 22.8731 69.3313C25.2807 69.309 26.6364 70.4505 26.6364 72.7964ZM25.0528 75.3536V74.1528H22.5959C21.0275 74.1528 20.5718 74.7458 20.5718 75.4759C20.5718 76.3283 21.3047 76.8694 22.5085 76.8694C23.7009 76.8731 24.6465 76.3394 25.0528 75.3536Z" fill="#0B0736"/>
<path d="M43.6531 70.5961C43.6531 73.0569 41.8303 74.5468 38.8037 74.5468H35.9252V77.9823H34.2695V66.6381H38.8037C41.8265 66.6418 43.6531 68.1353 43.6531 70.5961ZM41.9936 70.5961C41.9936 68.9803 40.8809 68.0501 38.7657 68.0501H35.9404V73.1311H38.7657C40.8923 73.1311 41.9936 72.212 41.9936 70.5961Z" fill="#0B0736"/>
<path d="M50.751 69.3048V70.8132C50.6218 70.8021 50.4965 70.8021 50.3826 70.8021C48.6737 70.8021 47.6067 71.8286 47.6067 73.6965V77.9733H46.0117V69.3975H47.5421V70.8428C48.1231 69.8274 49.213 69.3048 50.751 69.3048Z" fill="#0B0736"/>
<path d="M52.0234 73.6817C52.0234 71.1245 53.9601 69.3048 56.607 69.3048C59.2386 69.3048 61.1677 71.1245 61.1677 73.6817C61.1677 76.2388 59.2424 78.0696 56.607 78.0696C53.9601 78.0696 52.0234 76.2388 52.0234 73.6817ZM59.5462 73.6817C59.5462 71.8509 58.2779 70.6686 56.5994 70.6686C54.9019 70.6686 53.6336 71.8583 53.6336 73.6817C53.6336 75.505 54.9133 76.7095 56.5994 76.7095C58.2931 76.7095 59.5462 75.5124 59.5462 73.6817Z" fill="#0B0736"/>
<path d="M72.4814 73.6836C72.4814 76.326 70.6055 78.0715 68.0384 78.0715C66.7966 78.0715 65.6954 77.6009 64.9738 76.6781V81.1142H63.3789V69.3994H64.9093V70.7558C65.6156 69.807 66.7435 69.3104 68.0536 69.3104C70.6055 69.3067 72.4814 71.0634 72.4814 73.6836ZM70.8713 73.6836C70.8713 71.8639 69.5916 70.6706 67.9055 70.6706C66.2384 70.6706 64.9587 71.8713 64.9587 73.6836C64.9587 75.5144 66.2384 76.7114 67.9055 76.7114C69.5954 76.7114 70.8713 75.5144 70.8713 73.6836Z" fill="#0B0736"/>
<path d="M82.5858 74.2042H75.4542C75.6555 75.7126 76.901 76.7132 78.6479 76.7132C79.6732 76.7132 80.5352 76.3648 81.177 75.6755L82.0504 76.6761C81.2567 77.5767 80.0377 78.0696 78.5795 78.0696C75.7428 78.0696 73.8555 76.2388 73.8555 73.6817C73.8555 71.1356 75.7314 69.3048 78.2605 69.3048C80.7896 69.3048 82.6048 71.0837 82.6048 73.7298C82.6124 73.8558 82.5972 74.0523 82.5858 74.2042ZM75.4542 73.0776H81.0896C80.9226 71.6322 79.8099 70.6168 78.2643 70.6168C76.7529 70.6205 75.6213 71.6174 75.4542 73.0776Z" fill="#0B0736"/>
<path d="M89.5596 69.3048V70.8132C89.4304 70.8021 89.3051 70.8021 89.1912 70.8021C87.4823 70.8021 86.4152 71.8286 86.4152 73.6965V77.9733H84.8203V69.3975H86.3507V70.8428C86.9279 69.8274 88.014 69.3048 89.5596 69.3048Z" fill="#0B0736"/>
<path d="M96.5682 77.4697C96.086 77.8774 95.3493 78.0627 94.6429 78.0627C92.8695 78.0627 91.8556 77.1139 91.8556 75.3795V70.6728H90.3594V69.4016H91.8556V67.5264H93.4505V69.4053H95.972V70.6765H93.4505V75.3239C93.4505 76.2504 93.9442 76.7692 94.829 76.7692C95.2961 76.7692 95.7404 76.621 96.0708 76.3616L96.5682 77.4697Z" fill="#0B0736"/>
<path d="M98.2148 66.7409C98.2148 66.1702 98.6819 65.7144 99.2895 65.7144C99.8971 65.7144 100.364 66.148 100.364 66.7039C100.364 67.2857 99.9199 67.7416 99.2895 67.7416C98.6819 67.7379 98.2148 67.3043 98.2148 66.7409ZM98.4921 69.3945H100.087V77.9703H98.4921V69.3945Z" fill="#0B0736"/>
<path d="M111.039 74.2042H103.907C104.109 75.7126 105.354 76.7132 107.101 76.7132C108.126 76.7132 108.988 76.3648 109.63 75.6755L110.504 76.6761C109.71 77.5767 108.491 78.0696 107.033 78.0696C104.196 78.0696 102.309 76.2388 102.309 73.6817C102.309 71.1356 104.185 69.3048 106.714 69.3048C109.243 69.3048 111.058 71.0837 111.058 73.7298C111.081 73.8558 111.062 74.0523 111.039 74.2042ZM103.907 73.0776H109.543C109.376 71.6322 108.263 70.6168 106.717 70.6168C105.198 70.6205 104.074 71.6174 103.907 73.0776Z" fill="#0B0736"/>
<path d="M112.172 77.071L112.829 75.8331C113.573 76.3557 114.766 76.7226 115.916 76.7226C117.397 76.7226 118.009 76.289 118.009 75.5626C118.009 73.6355 112.453 75.3032 112.453 71.8936C112.453 70.363 113.862 69.3253 116.125 69.3253C117.264 69.3253 118.567 69.6255 119.33 70.0999L118.647 71.3377C117.853 70.8337 116.979 70.6595 116.117 70.6595C114.728 70.6595 114.044 71.1635 114.044 71.8491C114.044 73.8726 119.619 72.2197 119.619 75.5552C119.619 77.1117 118.16 78.1012 115.821 78.1012C114.333 78.0716 112.893 77.6232 112.172 77.071Z" fill="#0B0736"/>
<path d="M62.5281 55.6155C81.7509 49.6969 82.2559 7.68149 60.6825 1.18108C60.5154 1.1329 60.3445 0.995781 60.0977 0.958721C75.7509 1.0662 85.2332 12.277 87.018 24.5514C89.3382 40.543 79.2825 53.3066 62.5433 55.6192H62.5281V55.6155ZM54.9863 0.947602C55.1382 0.92166 55.3015 0.910542 55.4534 0.888306C36.018 8.1188 35.5243 49.0706 57.2268 55.3338C57.4661 55.3709 57.5648 55.5191 57.8116 55.5562C42.0863 55.5303 32.604 44.2379 30.8192 31.9635C28.8407 18.3586 36.2192 3.53072 54.9711 0.943896H54.9863V0.947602Z" fill="#0B0736"/>
</g>
<defs>
<clipPath id="clip0_5133_2243">
<rect width="120" height="82" fill="white"/>
</clipPath>
</defs>
</svg>
